<?xml version="1.0" standalone="no"?>
<!DOCTYPE svg PUBLIC "-//W3C//DTD SVG 20010904//EN"
 "http://www.w3.org/TR/2001/REC-SVG-20010904/DTD/svg10.dtd">
<svg version="1.0" xmlns="http://www.w3.org/2000/svg"
 width="1081.000000pt" height="492.000000pt" viewBox="0 0 1081.000000 492.000000"
 preserveAspectRatio="xMidYMid meet">

<g transform="translate(0.000000,492.000000) scale(0.100000,-0.100000)"
fill="#000000" stroke="none">
<path d="M0 2460 l0 -2460 5405 0 5405 0 0 2460 0 2460 -5405 0 -5405 0 0
-2460z m2570 2076 c371 -73 640 -269 781 -570 68 -146 91 -242 96 -408 3 -89
1 -179 -6 -229 -16 -108 -72 -266 -129 -364 -110 -187 -348 -369 -567 -433
-191 -56 -192 -56 -767 -60 l-538 -3 0 1046 0 1047 523 -5 c433 -4 536 -7 607
-21z m2501 -121 c31 -78 136 -327 233 -554 97 -227 176 -415 176 -417 0 -2
-50 -4 -110 -4 l-110 0 2 -187 3 -188 38 -18 c35 -16 37 -19 37 -65 0 -49 0
-49 -52 -77 -29 -15 -74 -43 -100 -62 l-48 -35 -12 26 -11 26 -410 -2 -410 -3
-68 -155 c-38 -85 -74 -172 -80 -192 l-12 -38 -279 0 c-153 0 -278 3 -278 6 0
3 25 62 55 130 30 69 55 126 55 129 0 2 51 120 114 263 63 142 166 380 229
528 144 336 268 625 314 729 70 159 102 231 117 268 l15 37 267 -2 267 -3 58
-140z m2447 -82 l-3 -228 -317 -3 -318 -2 0 -815 0 -815 -210 0 -210 0 -24 48
c-13 27 -43 76 -65 110 l-41 61 0 706 0 705 -305 0 c-297 0 -305 0 -315 21
-11 19 -13 396 -2 427 3 9 194 12 908 12 l904 0 -2 -227z m1429 130 c65 -151
248 -581 318 -748 35 -82 98 -229 140 -325 208 -473 385 -891 385 -910 0 -6
-105 -10 -281 -10 l-281 0 -21 52 c-12 28 -49 115 -82 192 l-60 141 -430 3
-430 2 -85 -195 -85 -195 -272 0 c-150 0 -273 2 -273 4 0 10 224 533 557 1301
140 323 286 662 306 710 11 28 25 56 30 63 7 9 72 12 266 12 l256 0 42 -97z
m-2996 -1164 c17 -9 19 -17 13 -57 -9 -66 -20 -82 -53 -82 -39 0 -42 -16 -34
-180 l6 -135 76 -35 c143 -66 245 -165 320 -310 65 -124 85 -213 85 -365 0
-116 -3 -139 -28 -210 -76 -220 -196 -361 -390 -458 -338 -169 -744 -13 -926
357 -181 365 -11 826 366 997 l65 29 -3 158 -3 157 -32 3 -33 3 0 63 c0 34 3
66 7 69 11 12 542 8 564 -4z"/>
<path d="M1984 4075 c-2 -5 -3 -262 -2 -569 l3 -560 237 3 c257 2 304 9 415
61 148 69 248 237 260 440 17 281 -76 470 -282 572 -95 48 -166 59 -406 61
-140 1 -223 -2 -225 -8z"/>
<path d="M4711 3908 c-75 -173 -239 -594 -235 -600 8 -12 504 -10 504 2 0 5
-15 49 -34 97 -18 49 -64 167 -101 263 -37 96 -78 201 -90 233 l-22 59 -22
-54z"/>
<path d="M8621 3933 c-8 -21 -65 -168 -128 -326 -63 -159 -112 -291 -110 -294
7 -7 489 -4 496 3 3 3 -6 38 -21 77 -21 58 -188 490 -216 560 -6 15 -10 11
-21 -20z"/>
<path d="M5884 2625 c-9 -13 -18 -43 -21 -65 -5 -33 -2 -45 17 -65 64 -68 175
9 140 96 -24 57 -107 78 -136 34z"/>
<path d="M5813 2413 c-7 -2 -13 -18 -13 -34 0 -27 3 -30 28 -27 20 2 28 9 30
27 5 31 -16 46 -45 34z"/>
<path d="M6026 2391 c-10 -10 -18 -34 -18 -51 -2 -80 109 -78 127 1 5 21 1 31
-21 48 -33 26 -66 27 -88 2z"/>
<path d="M5146 2355 c-61 -16 -71 -29 -90 -116 -19 -81 -20 -135 -5 -232 27
-175 170 -363 339 -446 101 -49 159 -61 289 -61 164 1 290 58 412 188 129 138
177 250 186 435 3 59 3 107 0 107 -3 0 -46 -14 -96 -30 -125 -42 -185 -46
-305 -21 -97 20 -119 28 -261 104 -145 77 -340 107 -469 72z m88 -81 c12 -5
16 -20 16 -64 0 -55 -1 -57 -24 -53 -17 4 -22 10 -19 23 3 10 0 21 -6 24 -6 4
-12 2 -12 -3 -3 -26 -4 -30 -11 -37 -11 -10 -10 30 1 58 5 13 12 31 15 41 6
18 15 21 40 11z m237 -46 c2 -32 9 -51 24 -68 18 -20 45 -16 45 7 0 8 5 11 10
8 6 -3 10 -17 10 -31 0 -13 5 -24 10 -24 6 0 10 6 10 14 0 31 31 41 107 34 7
-1 15 -8 17 -15 3 -8 11 -11 16 -8 6 4 10 3 9 -2 -4 -26 2 -44 14 -37 7 5 5
-3 -5 -16 -9 -14 -23 -24 -32 -24 -10 1 -16 -6 -16 -18 0 -15 -5 -19 -20 -15
-11 3 -20 1 -20 -3 0 -12 -22 -7 -52 14 -18 12 -25 23 -21 34 4 12 3 14 -5 7
-5 -5 -12 -19 -14 -30 -2 -15 -11 -20 -38 -20 -33 0 -35 2 -38 35 -5 53 -19
57 -30 9 -9 -40 -10 -35 -11 52 -1 53 2 99 6 102 10 11 23 8 24 -5z m-61 -13
c8 -10 10 -41 6 -102 -3 -48 -5 -92 -6 -96 0 -5 -5 -5 -11 -2 -6 4 -8 25 -5
51 2 24 0 46 -4 49 -5 3 -7 26 -3 50 3 28 2 45 -5 45 -12 0 -22 -24 -22 -56 0
-13 -4 -24 -10 -24 -15 0 -12 37 5 70 17 33 36 38 55 15z m105 -45 c3 -5 1
-10 -4 -10 -6 0 -11 5 -11 10 0 6 2 10 4 10 3 0 8 -4 11 -10z m742 -22 c-3 -8
-6 -5 -6 6 -1 11 2 17 5 13 3 -3 4 -12 1 -19z m-335 -33 c13 -17 9 -63 -6 -68
-11 -4 -14 1 -13 20 1 14 -4 28 -12 31 -11 4 -13 -3 -8 -31 6 -37 -8 -52 -38
-41 -16 6 -30 42 -21 51 3 4 6 -1 6 -10 0 -9 5 -17 10 -17 14 0 13 23 -2 38
-8 8 -8 15 1 26 14 17 71 17 83 1z m188 -81 c11 -18 11 -27 1 -53 -17 -40 -37
-57 -44 -36 -4 8 -2 14 4 12 6 -1 18 8 26 21 13 18 13 22 1 22 -8 0 -19 -5
-26 -12 -6 -6 -15 -9 -18 -5 -10 9 15 37 33 37 8 0 13 6 10 13 -2 6 -17 12
-33 12 -19 1 -32 8 -39 22 -9 18 -13 19 -29 7 -11 -7 -22 -11 -27 -9 -4 3 -10
-1 -12 -7 -3 -7 -6 -1 -6 13 -1 30 12 38 79 46 25 3 47 7 50 10 3 3 8 -12 11
-34 3 -21 11 -48 19 -59z m17 81 c0 -8 -4 -15 -9 -15 -10 0 -11 14 -1 23 9 10
10 9 10 -8z m-883 -18 c14 -10 15 -17 7 -40 -7 -18 -7 -26 -1 -22 12 7 12 3 4
-19 -14 -38 -48 -8 -37 33 4 15 1 21 -11 21 -18 0 -19 2 -10 24 7 19 24 20 48
3z m566 -31 c0 -3 -4 -8 -10 -11 -5 -3 -10 -1 -10 4 0 6 5 11 10 11 6 0 10 -2
10 -4z m-160 -67 c0 -6 9 -8 20 -4 17 6 20 2 19 -27 -1 -18 -3 -25 -6 -15 -5
20 -23 23 -23 4 0 -7 -7 -22 -15 -33 -13 -17 -14 -15 -15 34 0 28 5 52 10 52
6 0 10 -5 10 -11z m270 -24 c0 -19 -4 -35 -9 -35 -5 0 -7 9 -4 20 3 11 0 20
-6 20 -6 0 -11 -12 -11 -26 0 -14 -4 -23 -10 -19 -14 9 -13 48 2 63 23 23 38
13 38 -23z m-462 -58 l3 -48 -33 3 c-29 3 -33 7 -36 36 -5 50 4 64 35 60 26
-3 28 -7 31 -51z m52 -14 c0 -48 -3 -64 -10 -53 -13 20 -13 120 0 120 6 0 10
-29 10 -67z m50 -24 c0 -68 -17 -62 -19 7 0 34 3 53 9 49 6 -3 10 -28 10 -56z
m-356 -7 c0 -23 -2 -42 -5 -42 -10 0 -19 29 -19 62 0 47 23 28 24 -20z m46 29
c15 -28 13 -71 -4 -71 -9 0 -12 8 -9 24 3 13 0 33 -6 45 -7 13 -8 21 -2 21 6
0 15 -9 21 -19z m446 -17 c12 -48 -33 -102 -50 -58 -10 25 -7 38 12 62 22 28
30 28 38 -4z m294 7 c5 -11 10 -34 10 -51 0 -24 -6 -33 -27 -41 -22 -8 -30 -7
-40 7 -17 24 -16 55 3 82 19 27 40 28 54 3z m136 -36 c4 -8 3 -27 0 -41 -9
-33 -49 -30 -54 4 -6 41 41 72 54 37z m-666 -123 c0 -49 -19 -75 -51 -70 -16
2 -25 10 -27 26 -4 30 25 75 44 68 8 -3 14 -1 14 4 0 6 5 10 10 10 6 0 10 -17
10 -38z m505 -2 c-9 -51 10 -53 23 -2 l9 37 8 -28 c6 -22 3 -33 -16 -53 -27
-29 -31 -30 -47 -3 -10 16 -11 28 -2 55 16 48 33 44 25 -6z m-88 -47 c-4 -20
-16 -46 -27 -57 l-20 -20 0 27 c0 16 -4 26 -10 22 -14 -9 -12 39 2 53 7 7 23
12 36 12 23 0 24 -3 19 -37z m-70 -75 c-3 -7 -5 -2 -5 12 0 14 2 19 5 13 2 -7
2 -19 0 -25z"/>
<path d="M5220 2250 c0 -5 5 -10 10 -10 6 0 10 5 10 10 0 6 -4 10 -10 10 -5 0
-10 -4 -10 -10z"/>
<path d="M5410 1920 c0 -16 5 -30 10 -30 6 0 10 14 10 30 0 17 -4 30 -10 30
-5 0 -10 -13 -10 -30z"/>
<path d="M5943 1874 c-7 -18 9 -51 23 -46 14 3 11 55 -3 59 -7 3 -16 -3 -20
-13z"/>
<path d="M6089 1839 c-8 -15 -8 -24 0 -32 14 -14 19 -8 25 26 6 32 -9 36 -25
6z"/>
<path d="M5420 1710 c0 -24 15 -27 24 -4 9 22 8 24 -9 24 -8 0 -15 -9 -15 -20z"/>
<path d="M5830 1694 c0 -8 5 -12 10 -9 6 3 10 10 10 16 0 5 -4 9 -10 9 -5 0
-10 -7 -10 -16z"/>
</g>
</svg>
